<svg id="레이어_1" data-name="레이어 1" xmlns="http://www.w3.org/2000/svg" viewBox="0 0 800 800"><defs><style>.cls-1{fill:#14286f;}.cls-2{fill:#fed630;}</style></defs><path class="cls-1" d="M573,291.47h0a86.72,86.72,0,0,0-86.8-86.64H416.15v69.38h53.23a17.27,17.27,0,1,1,0,34.53H416.15v69.37l121.32,54c7.71,3.43,14.63-6.07,9-12.33l-39.71-44.12A86.71,86.71,0,0,0,573,291.47Z"/><path class="cls-2" d="M227,291.47h0a86.72,86.72,0,0,0,86.8,86.64h67.75V308.74H330.62a17.27,17.27,0,1,1,0-34.53h50.93V204.83H313.8A86.72,86.72,0,0,0,227,291.47Z"/><path d="M198.88,547.44V530.16h14v17.28h18.84l4.2-25.92H180.28v-13h70.08v13l-4.2,25.92H257V558H174.4V547.44Zm37,17.16a17.78,17.78,0,0,1,6.72,1.26,16.51,16.51,0,0,1,5.4,3.48,16,16,0,0,1,3.6,5.4,19.33,19.33,0,0,1,0,14,16,16,0,0,1-3.6,5.4,16.51,16.51,0,0,1-5.4,3.48,17.78,17.78,0,0,1-6.72,1.26H195.52a17.78,17.78,0,0,1-6.72-1.26,16.51,16.51,0,0,1-5.4-3.48,16,16,0,0,1-3.6-5.4,19.33,19.33,0,0,1,0-14,16,16,0,0,1,3.6-5.4,16.51,16.51,0,0,1,5.4-3.48,17.78,17.78,0,0,1,6.72-1.26Zm-40.32,12.12a3.63,3.63,0,0,0-2.88,1.44,6,6,0,0,0,0,7.2,3.63,3.63,0,0,0,2.88,1.44h40.32a3.63,3.63,0,0,0,2.88-1.44,6,6,0,0,0,0-7.2,3.63,3.63,0,0,0-2.88-1.44Z"/><path d="M305.2,550.32l18.24,48.24H308.2L297,568.08l-14.28,30.48H267.4l35.16-76.92H269V508.56h49.56v13.08Zm40.68,48.6H332.56V508.08h13.32Z"/><path d="M392.08,508.56a19.39,19.39,0,0,1,6.9,1.2,17.47,17.47,0,0,1,5.58,3.36,15.36,15.36,0,0,1,3.78,5.28,17,17,0,0,1,1.38,7V534a17,17,0,0,1-1.38,7,15.36,15.36,0,0,1-3.78,5.28A17.47,17.47,0,0,1,399,549.6a19.39,19.39,0,0,1-6.9,1.2H378.76a19.53,19.53,0,0,1-6.84-1.2,17.33,17.33,0,0,1-5.64-3.36A15.36,15.36,0,0,1,362.5,541a17,17,0,0,1-1.38-7v-8.64a17,17,0,0,1,1.38-7,15.36,15.36,0,0,1,3.78-5.28,17.33,17.33,0,0,1,5.64-3.36,19.53,19.53,0,0,1,6.84-1.2Zm30.12,48V508.08h13.08v12.36h9.84v13h-9.84v49.2H378.64v5.16h56.64v11.16H365.2V572.4h56.64v-4.8H365.2v-11ZM396,528.12a6.94,6.94,0,0,0-2-5.22,7.93,7.93,0,0,0-5.76-2H382.6a8,8,0,0,0-5.7,2,6.84,6.84,0,0,0-2.1,5.22v3.24a6.84,6.84,0,0,0,2.1,5.22,8,8,0,0,0,5.7,2h5.64a7.93,7.93,0,0,0,5.76-2,6.94,6.94,0,0,0,2-5.22Z"/><path d="M500.8,508.56V560.4H467.68v25.44h34.2v12.6H454.24V546.6h33.12v-25H454.24V508.56Zm29.28,90.36h-13.2V508.08h13.2Z"/><path d="M596.32,598.44H546.4V508.56h49.92Zm-35-13.08h20.16V521.64H561.28Zm61,13.56H608.56V508.08h13.68Z"/></svg>