<svg id="레이어_1" data-name="레이어 1" xmlns="http://www.w3.org/2000/svg" viewBox="0 0 800 800"><defs><style>.cls-1{fill:#14286f;}.cls-2{fill:#fed630;}</style></defs><path class="cls-1" d="M741,390.89h0c0-94.44-76.6-171-171.1-171H431.83V356.81H536.76a34.08,34.08,0,1,1,0,68.16H431.83V561.89L671,668.46c15.17,6.77,28.83-12,17.72-24.34l-78.26-87.07A171.07,171.07,0,0,0,741,390.89Z"/><path class="cls-2" d="M59,390.89h0c0,94.44,76.6,171,171.1,171H363.63V425H263.24a34.08,34.08,0,1,1,0-68.16H363.63V219.89H230.1C135.6,219.89,59,296.45,59,390.89Z"/></svg>