<svg xmlns="http://www.w3.org/2000/svg" width="70" height="46.667" viewBox="0 0 70 46.667">
  <g id="logo" transform="translate(0 0)">
    <path id="패스_211" data-name="패스 211" d="M463.563,237.623h0A17.648,17.648,0,0,0,446,219.89H431.83v14.2H442.6a3.534,3.534,0,0,1,0,7.068H431.83v14.2l24.548,11.052a1.592,1.592,0,0,0,1.819-2.524l-8.033-9.029A17.706,17.706,0,0,0,463.563,237.623Z" transform="translate(-393.563 -219.89)" fill="#14286f"/>
    <path id="패스_212" data-name="패스 212" d="M59,237.623h0a17.648,17.648,0,0,0,17.562,17.733H90.267v-14.2h-10.3a3.534,3.534,0,0,1,0-7.068h10.3v-14.2H76.562A17.648,17.648,0,0,0,59,237.623Z" transform="translate(-59 -219.89)" fill="#fed630"/>
  </g>
</svg>
