<svg xmlns="http://www.w3.org/2000/svg" xmlns:xlink="http://www.w3.org/1999/xlink" width="23.469" height="23.18" viewBox="0 0 23.469 23.18">
  <defs>
    <clipPath id="clip-path">
      <rect width="23.469" height="23.18" fill="none"/>
    </clipPath>
  </defs>
  <g id="Settings" clip-path="url(#clip-path)">
    <rect id="사각형_193" data-name="사각형 193" width="23.531" height="23.531" fill="none"/>
    <path id="패스_104" data-name="패스 104" d="M271.087,14.487a2.9,2.9,0,1,0-2.956-2.9A2.936,2.936,0,0,0,271.087,14.487Zm-6.061-9.272a8.39,8.39,0,0,1,3.548-1.883L269.756,0h2.956L273.9,3.332a10.389,10.389,0,0,1,3.548,1.883l3.548-.724L282.469,7.1,280.1,9.706a8.1,8.1,0,0,1,.148,1.883c0,.579-.148,1.3-.148,1.883l2.365,2.608-1.478,2.608-3.548-.724a8.39,8.39,0,0,1-3.548,1.883l-1.183,3.332h-2.956l-1.183-3.332a10.389,10.389,0,0,1-3.548-1.883l-3.548.724L260,16.081l2.365-2.608a8.1,8.1,0,0,1-.148-1.883c0-.579.148-1.3.148-1.883L260,7.1l1.478-2.608Z" transform="translate(-259)" fill="#142b6f" fill-rule="evenodd"/>
  </g>
</svg>
